<?xml version="1.0" encoding="UTF-8"?>
<!DOCTYPE svg PUBLIC "-//W3C//DTD SVG 1.1//EN" "http://www.w3.org/Graphics/SVG/1.1/DTD/svg11.dtd">
<!-- Creator: CorelDRAW X7 -->
<svg xmlns="http://www.w3.org/2000/svg" xml:space="preserve" width="10cm" height="6cm" version="1.1" style="shape-rendering:geometricPrecision; text-rendering:geometricPrecision; image-rendering:optimizeQuality; fill-rule:evenodd; clip-rule:evenodd"
viewBox="0 0 10000 6000"
 xmlns:xlink="http://www.w3.org/1999/xlink">
 <defs>
  <style type="text/css">
   <![CDATA[
    .fil0 {fill:#BE905C;fill-rule:nonzero}
   ]]>
  </style>
 </defs>
 <g id="Layer_x0020_1">
  <metadata id="CorelCorpID_0Corel-Layer"/>
  <path class="fil0" d="M1481 1170c-17,4 -25,12 -28,27l-1 6c-3,17 1,28 12,33 21,11 35,43 46,95 5,103 3,182 -7,238 -485,164 -806,246 -966,246 -112,0 -183,-34 -214,-100 -12,-60 -29,-91 -45,-91 -14,0 -25,10 -30,31l-3 19c-1,2 -1,11 1,25 30,123 119,186 269,186l51 0c141,0 450,-75 929,-227 -8,66 -18,130 -30,197 -96,564 -150,907 -162,1027 -29,275 -45,518 -52,727 -38,-25 -88,-68 -147,-127 -36,-48 -66,-71 -87,-71 -17,2 -25,7 -27,20 -4,19 13,50 50,90 80,85 150,142 208,176 -5,220 -3,411 4,575 -2,31 6,47 26,47l5 0c12,0 25,-8 36,-22 1,-178 6,-359 19,-541l0 -2c189,94 400,143 633,143 155,0 309,-24 458,-68 122,-36 229,-82 320,-141 156,-102 245,-224 269,-363 18,-98 -2,-205 -61,-320 -20,-35 -55,-80 -101,-134 -77,-73 -153,-123 -229,-152 -50,-19 -120,-37 -212,-53 -174,-16 -290,-29 -347,-38 -60,-12 -89,-34 -83,-66 15,-84 160,-190 436,-313 352,-152 579,-252 679,-300 264,-123 406,-241 427,-357l2 -9c8,-49 -10,-100 -54,-152 -96,-89 -276,-134 -535,-134l-29 0c-370,0 -810,82 -1321,247 6,-163 -5,-266 -33,-310 -24,-42 -49,-64 -74,-64l-2 0zm103 461c496,-152 919,-227 1269,-227l43 0c223,0 383,36 480,105 28,31 40,56 36,75 -14,81 -187,192 -519,331 -331,132 -566,238 -706,317 -196,105 -305,215 -325,330 -9,50 5,93 40,129 22,27 82,48 177,64 179,13 300,25 368,38 109,15 204,57 280,121 23,13 62,56 115,125 66,104 92,198 76,286l-1 6c-24,137 -131,251 -323,346 -204,91 -407,138 -612,138l-38 0c-216,0 -415,-48 -599,-147 5,-105 17,-232 32,-377 125,-945 194,-1499 207,-1660zm1859 1235c-12,0 -41,11 -90,34 -128,87 -209,220 -240,396 -20,113 -14,211 19,295 43,91 105,138 189,138 116,0 219,-54 309,-159 10,-18 19,-27 24,-29 41,-9 82,-26 121,-57 67,-53 120,-109 160,-164 60,-88 92,-136 94,-149l0 -1c2,-13 -6,-22 -29,-29 -12,2 -22,4 -28,9 -26,43 -61,93 -107,152 -56,62 -107,109 -155,136 29,-70 49,-132 58,-184 9,-50 8,-109 -1,-177 -30,-117 -87,-173 -171,-173 -20,0 -40,1 -59,5 -88,26 -141,91 -159,193l0 2c-9,48 -9,102 -3,158 23,131 72,219 149,259l-1 4c-56,63 -116,95 -183,95l-9 0c-25,0 -50,-11 -72,-34 -60,-77 -79,-182 -55,-316 10,-56 29,-113 57,-170 44,-80 95,-132 151,-159 30,-7 46,-18 48,-31l3 -14c-1,-19 -7,-30 -20,-30zm41 257c2,-16 8,-36 15,-55 12,-31 33,-47 62,-47l5 0c5,0 12,2 24,4 49,37 63,118 42,239l-2 13 -4 18c-7,44 -24,94 -49,146 -8,-5 -22,-18 -39,-37 -54,-88 -72,-181 -54,-281zm811 -390c-14,0 -33,11 -60,33 -67,63 -169,216 -309,465l-1 1c-2,14 8,25 30,32 13,0 24,-5 32,-18 152,-244 240,-369 261,-375 5,2 7,9 5,22l-62 321c-23,131 -29,236 -17,317 23,90 69,136 137,136 73,0 158,-52 256,-156 83,-91 169,-209 261,-354 53,-89 81,-136 86,-141l2 0c7,0 1,57 -20,173 -37,209 -45,326 -24,347 12,23 26,34 38,34l17 0c43,0 105,-63 188,-186 84,-130 126,-200 128,-211 3,-16 -7,-25 -30,-30l-9 0c-11,2 -29,23 -54,67 -109,167 -173,249 -193,249l-3 0c-9,0 -7,-34 5,-103l1 -6c9,-52 30,-159 64,-321 8,-54 13,-92 13,-111 0,-64 -19,-97 -58,-97l-6 0c-32,0 -74,36 -128,106 -90,137 -162,244 -220,321 -150,198 -246,297 -289,297 -52,0 -65,-104 -43,-310 44,-280 63,-419 58,-419 -7,-56 -20,-83 -43,-83l-13 0zm525 -871c0,-2 1,-6 4,-13 40,-39 84,-59 124,-59l15 0c50,0 91,29 122,88l-1 2c-32,1 -59,1 -79,1l-53 0c-91,0 -134,-7 -132,-19zm753 82c39,-4 75,-7 111,-11 -73,263 -185,572 -339,926l-1 0 0 -2c56,-245 97,-418 124,-518 39,-150 73,-283 105,-395zm30 -106c39,-133 74,-235 102,-305 34,-82 55,-127 66,-136l1 0c11,0 4,77 -17,231 -11,62 -25,130 -43,202 -38,1 -74,5 -109,8zm-166 122c-8,23 -15,45 -21,68 -93,369 -166,707 -221,1013l-26 152c-12,68 -22,130 -27,189 -36,354 13,531 149,531l11 0c55,0 131,-44 226,-132 111,-118 217,-250 312,-397 74,-114 117,-184 126,-207 -1,-23 -8,-34 -22,-34 -9,0 -21,5 -33,14 -101,155 -185,277 -257,368 -160,200 -274,300 -342,300l-5 0c-11,0 -21,-5 -30,-14 -62,-71 -66,-261 -12,-566 5,-27 11,-64 21,-110 40,-79 90,-178 145,-294 156,-348 275,-656 353,-919 192,-19 332,-28 424,-28 71,0 151,5 240,16 71,10 119,23 143,35 29,11 45,29 52,52 -3,31 5,47 24,47l2 0c12,0 21,-9 26,-25 11,-63 -13,-111 -71,-145 -116,-48 -277,-71 -481,-71 -73,0 -168,3 -282,12 -17,2 -33,2 -49,4 24,-88 42,-168 55,-245 16,-88 22,-159 19,-216 -3,-84 -30,-126 -78,-126 -62,0 -125,74 -192,221 -44,92 -92,225 -146,398 -141,12 -244,19 -311,23 -43,-113 -104,-169 -186,-169l-19 0c-35,0 -75,12 -118,37 -59,39 -93,80 -101,125 -3,18 -1,36 5,52 12,45 79,68 200,68l140 0c9,0 21,0 38,-2 4,16 6,34 8,54 -3,25 4,37 18,37l6 0c17,-4 27,-10 29,-23 2,-12 2,-36 0,-68l2 -4c43,0 128,-7 256,-21zm807 786c-16,4 -34,11 -50,20 -42,34 -81,75 -117,127 -135,213 -206,327 -209,344l0 4c-2,7 13,16 42,25 5,-2 9,-4 15,-7 82,-128 151,-227 204,-297 24,-35 47,-60 69,-77l8 0 0 9 -13 72c-56,234 -87,370 -93,407 -23,131 -32,220 -25,272 10,52 31,77 61,77l7 0c27,0 60,-16 97,-50 67,-66 177,-234 329,-502 -5,-20 -20,-29 -43,-29l-5 0c-5,2 -12,9 -20,21 -90,140 -170,256 -240,347 -39,48 -61,72 -66,72l-5 0c-2,0 -3,-2 -3,-4l12 -70c50,-232 81,-375 90,-430 13,-84 22,-145 25,-183 9,-98 -14,-148 -70,-148zm-66 -332c-2,2 -7,10 -17,27 -37,77 -40,135 -14,178 6,9 13,16 22,25 57,31 122,11 197,-59 51,-46 85,-100 103,-159 15,-55 17,-93 1,-116l-9 -13c-1,-3 -7,-8 -15,-14 -45,-19 -92,-5 -141,39l-4 6c-39,36 -63,80 -71,136l3 2c16,2 29,-2 39,-8 4,-3 7,-7 5,-9 11,-30 21,-50 34,-62l14 -13c25,-25 49,-30 70,-17 20,30 -8,90 -87,182 -13,12 -25,21 -37,27 -32,19 -55,16 -70,-8l-7 -10c-2,-2 -4,-11 -5,-24 -3,-23 4,-55 24,-94 -8,-9 -19,-14 -35,-16zm1263 405l-16 0c-60,16 -112,50 -155,99l-2 0c-82,-49 -173,-74 -267,-74 -141,0 -271,58 -386,172 -120,134 -191,263 -213,386l-4 23c-10,57 -6,113 15,166 40,68 93,102 157,102l7 0c109,0 251,-100 425,-302 139,-166 240,-285 305,-359 34,-37 67,-64 97,-84 3,16 -1,47 -9,93l-4 19c-13,77 -41,196 -85,354 -146,549 -236,920 -271,1117l-3 18c-18,100 -27,183 -28,245 7,23 21,36 42,36 35,-6 55,-19 59,-42 7,-37 20,-123 39,-257 10,-45 13,-66 15,-66 20,-116 65,-256 133,-420 107,-252 211,-464 309,-641 82,-143 124,-219 125,-225 0,-23 -6,-36 -20,-36 -13,0 -25,7 -37,19 -113,183 -218,370 -315,563l-2 0 1 -2c79,-267 132,-477 159,-627l5 -28c13,-72 17,-127 11,-164 -6,-56 -35,-85 -87,-85zm-950 583c4,-23 10,-46 19,-73 48,-125 113,-225 195,-299 90,-76 189,-114 290,-114 81,0 154,19 223,57 -52,59 -123,145 -215,261 -191,241 -328,362 -414,362l-5 0c-9,0 -20,-1 -32,-6 -56,-31 -78,-90 -62,-181l1 -7zm1508 -669c-14,0 -33,11 -60,33 -67,63 -169,216 -309,465l-1 1c-2,14 8,25 30,32 13,0 24,-5 32,-18 152,-244 240,-369 261,-375 5,2 7,9 5,22l-62 321c-23,131 -29,236 -17,317 23,90 69,136 137,136 73,0 158,-52 256,-156 83,-91 169,-209 261,-354 53,-89 81,-136 86,-141l2 0c7,0 0,57 -20,173 -37,209 -45,326 -24,347 12,23 26,34 38,34l17 0c43,0 105,-63 188,-186 84,-130 126,-200 128,-211 3,-16 -7,-25 -30,-30l-9 0c-11,2 -29,23 -54,67 -109,167 -173,249 -193,249l-3 0c-9,0 -7,-34 5,-103l1 -6c9,-52 30,-159 64,-321 8,-54 13,-92 13,-111 0,-64 -19,-97 -58,-97l-6 0c-32,0 -74,36 -128,106 -90,137 -162,244 -221,321 -149,198 -245,297 -288,297 -52,0 -65,-104 -43,-310 44,-280 63,-419 58,-419 -7,-56 -20,-83 -43,-83l-13 0zm1361 97c-129,0 -258,68 -392,204 -72,87 -116,172 -130,250 -14,77 -9,154 15,231 40,125 120,187 239,187 98,0 209,-45 330,-132 90,-75 157,-139 200,-193 86,-111 130,-175 133,-193l1 -5c-10,-17 -21,-23 -35,-23l-9 0c-13,8 -31,31 -57,69 -41,59 -103,127 -186,204 -133,112 -245,167 -337,167l-4 0c-57,0 -100,-21 -128,-64 -36,-69 -48,-141 -34,-214 15,-75 27,-111 36,-111 81,-5 176,-34 285,-86 117,-62 179,-123 190,-182l1 -7c2,-9 1,-18 1,-27 -14,-51 -54,-76 -117,-76l-2 1zm-327 305c1,-6 21,-31 60,-76 97,-86 180,-129 249,-129l18 0c16,0 22,5 20,16 -7,14 -18,27 -29,38 -73,68 -178,118 -316,151l-2 0z"/>
 </g>
</svg>
