<svg xmlns="http://www.w3.org/2000/svg" width="3cm" height="1cm" viewBox="0 0 3000 1000">
  <defs>
    <style type="text/css">
      .fil0 {fill:#ffffff;fill-rule:nonzero}
    </style>
  </defs>
  <g>
    <path class="fil0" d="M487 290l0 28 0 10 -11 0 -29 0c-24,0 -46,4 -66,13 -20,8 -38,21 -55,38l0 0c-34,33 -51,74 -51,121 0,24 5,46 13,66 8,20 21,39 38,55 17,17 35,30 55,38 20,9 42,13 66,13l30 0 10 0 0 10 0 28 0 11 -10 0 -30 0c-30,0 -58,-5 -85,-16 -26,-11 -50,-27 -71,-49 -22,-21 -38,-45 -49,-71 -10,-26 -16,-55 -16,-85 0,-61 22,-113 65,-156l0 0c21,-22 45,-38 71,-49 27,-11 55,-16 85,-16l29 0 11 0 0 11zm2287 38l-112 0 0 393 -50 0 0 -393 -112 0 0 -49 274 0 0 49zm-794 47c0,24 4,46 13,66 8,20 21,39 37,56 16,15 34,28 53,36 17,7 35,12 54,13 1,-6 3,-12 4,-18 1,-9 2,-18 2,-28l0 0 -2 -221c17,0 33,0 50,0 0,74 1,148 1,221 0,26 -7,61 -17,85 -21,52 -67,98 -119,120 -27,11 -55,16 -85,16l-1 0 -11 0 0 -11 0 -28 0 -10 11 0 1 0c57,0 105,-26 139,-71l0 0c2,-2 4,-5 5,-8 -20,-3 -39,-9 -57,-17 -22,-11 -43,-26 -62,-45l0 0c-22,-21 -38,-45 -49,-71 -11,-26 -16,-55 -16,-85l0 -96c16,0 33,0 49,0l0 96zm-518 4c-15,15 -27,32 -35,49 -7,15 -11,31 -13,47l159 0 0 -147c-19,1 -38,6 -55,13 -20,8 -39,21 -56,38l0 0zm161 342l-50 0 0 -196 -161 0 0 196c-16,0 -33,0 -49,0l0 -222c0,-30 5,-58 16,-84 11,-26 27,-50 48,-71 22,-22 46,-38 72,-49 26,-11 54,-16 85,-16l39 0 0 442zm-778 -49l209 0 0 49 -258 0 0 -442 49 0 0 393z"/>
  </g>
</svg>
