<?xml version="1.0" encoding="UTF-8"?>
<!DOCTYPE svg PUBLIC "-//W3C//DTD SVG 1.1//EN" "http://www.w3.org/Graphics/SVG/1.1/DTD/svg11.dtd">
<!-- Creator: CorelDRAW X7 -->
<svg xmlns="http://www.w3.org/2000/svg" xml:space="preserve" width="10cm" height="6cm" version="1.1" style="shape-rendering:geometricPrecision; text-rendering:geometricPrecision; image-rendering:optimizeQuality; fill-rule:evenodd; clip-rule:evenodd"
viewBox="0 0 10000 6000"
 xmlns:xlink="http://www.w3.org/1999/xlink">
 <defs>
  <style type="text/css">
   <![CDATA[
    .fil0 {fill:#BE905C;fill-rule:nonzero}
   ]]>
  </style>
 </defs>
 <g id="Layer_x0020_1">
  <metadata id="CorelCorpID_0Corel-Layer"/>
  <path class="fil0" d="M990 2706c-230,89 -388,93 -473,12l-6 -4c-23,-24 -39,-53 -51,-91 -15,-66 -27,-102 -36,-110 -17,-15 -31,-15 -44,-3 -11,16 -17,37 -20,62 7,95 35,165 86,212l11 8c93,87 250,98 469,32 -122,240 -215,473 -276,697 -18,64 -31,151 -44,261 -24,218 3,400 79,547 110,193 255,296 437,311l19 0c276,23 576,-144 905,-505 140,-158 289,-363 442,-616 5,-32 -5,-48 -32,-50l-22 3c-12,7 -37,45 -81,115 -105,161 -226,318 -366,473 -300,319 -568,470 -800,451 -137,-13 -248,-83 -329,-208 -121,-168 -130,-447 -23,-843 59,-223 153,-458 281,-706 31,-14 63,-30 97,-44 490,-239 843,-462 1061,-668 219,-207 312,-360 281,-464 -30,-103 -102,-158 -218,-169l-5 0c-170,-15 -384,98 -642,341 -147,151 -278,305 -390,460 -117,167 -221,332 -310,493l0 3zm286 -136c-30,15 -58,29 -86,45 31,-53 61,-109 94,-162 130,-209 259,-387 389,-534 268,-292 482,-434 643,-423 78,4 126,40 146,106 2,97 -94,233 -286,406 -191,174 -492,361 -900,562zm1384 703c-15,0 -49,13 -106,41 -153,103 -248,260 -285,470 -24,134 -17,250 22,349 51,109 124,164 224,164 138,0 259,-64 366,-189 12,-21 23,-32 29,-34 49,-10 97,-31 144,-67 79,-64 141,-130 189,-196 71,-103 109,-160 111,-175l1 -2c2,-15 -8,-26 -35,-34 -15,2 -26,4 -33,10 -30,51 -73,110 -127,181 -67,73 -127,129 -183,161 33,-83 57,-157 68,-219 10,-59 10,-129 -1,-209 -35,-139 -104,-206 -203,-206 -23,0 -47,2 -69,6 -105,32 -168,109 -189,229l-1 2c-10,58 -10,121 -3,188 27,155 86,259 177,308l-1 4c-67,75 -138,112 -217,112l-11 0c-30,0 -59,-12 -86,-39 -71,-92 -93,-217 -65,-376 12,-66 35,-133 68,-201 53,-95 112,-157 179,-189 36,-8 54,-21 57,-36l3 -16c0,-24 -8,-37 -23,-37zm48 306c3,-19 10,-43 18,-66 14,-36 39,-55 73,-55l6 0c7,0 15,2 29,4 58,44 75,140 50,284l-3 15 -4 21c-9,53 -28,112 -58,173 -10,-5 -26,-21 -47,-44 -64,-104 -85,-214 -64,-332zm942 -416c-57,0 -147,97 -268,295 -98,155 -147,237 -149,248l0 4c-3,17 10,30 36,36 9,0 20,-4 32,-15 166,-265 262,-398 286,-403 6,3 7,9 5,18l-6 34c-89,349 -142,561 -155,637 -5,27 -10,66 -15,118 -3,88 18,130 60,130l2 0c23,0 49,-9 75,-28 41,-36 75,-75 103,-116 184,-265 304,-435 358,-513 71,-106 142,-189 210,-250l8 0c0,13 -2,36 -7,72 -10,44 -20,89 -33,130 -68,205 -107,343 -120,413l-3 19c-21,116 -5,205 49,262 24,20 49,32 74,36 76,0 160,-53 253,-158 115,-134 226,-297 337,-490l0 -4c4,-19 -7,-30 -34,-36l-8 0c-7,0 -16,4 -26,13 -37,57 -84,128 -142,214 -171,237 -287,356 -346,356l-9 0c-40,-26 -53,-85 -36,-178 6,-36 20,-89 40,-155 83,-218 131,-367 144,-445 7,-36 8,-70 5,-102 -8,-70 -40,-105 -93,-105l-6 0c-74,0 -178,78 -307,237 -57,65 -168,228 -335,489 -35,57 -59,91 -66,100l-2 0c1,-19 2,-34 3,-45l3 -15c14,-76 55,-271 124,-583 26,-146 14,-220 -39,-220l-2 0zm630 -1080c0,-2 1,-7 5,-15 48,-47 99,-70 148,-70l17 0c59,0 108,34 144,104l0 2c-39,2 -71,2 -94,2l-63 0c-108,0 -160,-9 -157,-23zm893 97c46,-4 89,-8 132,-12 -87,311 -220,677 -402,1097l-2 0 1 -2c66,-290 115,-496 147,-614 46,-178 86,-335 124,-469zm36 -125c46,-159 87,-279 121,-363 40,-97 65,-150 77,-160l2 0c13,0 5,91 -20,273 -13,74 -30,155 -51,240 -46,2 -88,6 -129,10zm-197 144c-10,28 -18,53 -25,81 -110,438 -197,839 -261,1201l-32 180c-15,81 -26,155 -32,225 -43,419 16,629 177,629l12 0c66,0 157,-53 268,-157 133,-139 258,-296 371,-470 88,-136 139,-218 149,-246 -1,-27 -9,-40 -26,-40 -11,0 -25,6 -39,17 -119,184 -219,328 -304,436 -190,237 -326,356 -406,356l-6 0c-13,0 -25,-6 -36,-17 -74,-84 -78,-309 -14,-671 6,-32 13,-76 25,-130 48,-95 107,-212 172,-349 185,-413 326,-778 419,-1089 227,-24 393,-34 502,-34 85,0 179,6 284,19 85,12 142,28 171,42 34,13 53,34 61,62 -4,36 6,54 29,54l2 0c15,0 25,-10 31,-29 13,-74 -16,-131 -84,-172 -138,-57 -329,-84 -570,-84 -87,0 -200,4 -336,14 -19,2 -38,2 -58,5 30,-104 50,-199 66,-290 19,-105 26,-189 22,-257 -3,-99 -35,-148 -92,-148 -74,0 -148,86 -228,261 -52,110 -109,267 -173,472 -167,14 -290,23 -369,27 -50,-133 -123,-201 -221,-201l-21 0c-42,0 -90,15 -141,44 -70,47 -110,96 -120,149 -4,21 -1,42 6,61 14,54 94,81 238,81l166 0c10,0 25,0 44,-2 6,19 8,40 10,64 -3,29 5,44 22,44l6 0c21,-5 32,-12 35,-28 2,-14 3,-42 -1,-80l3 -4c51,0 152,-9 304,-26zm1102 1002c-98,0 -189,36 -271,106 -79,66 -142,130 -189,191 -106,149 -169,275 -188,381l-7 39c-10,59 -8,116 8,171 54,119 119,178 201,178 88,0 188,-64 302,-191 111,-126 248,-315 409,-568l2 0c0,3 -1,5 1,7 -14,68 -23,121 -30,159l-7 38c-8,47 -15,97 -20,152 -17,261 33,390 147,390 93,0 209,-90 345,-275 143,-206 216,-320 220,-343 3,-15 -8,-28 -32,-34l-9 0c-10,0 -19,4 -27,13 -83,128 -165,246 -246,345 -107,127 -182,191 -226,191 -15,0 -26,-11 -37,-32 -29,-76 -30,-189 -5,-335l10 -55c7,-36 34,-157 85,-358 3,-13 4,-23 4,-34 3,-68 -18,-102 -67,-102 -38,0 -84,32 -136,96l-6 0c-52,-87 -129,-130 -231,-130zm-529 678c12,-68 46,-152 104,-254 36,-59 83,-119 138,-180 92,-101 184,-153 279,-153 78,0 140,36 184,111l-174 239c-212,326 -356,490 -429,490 -8,-4 -14,-7 -17,-7 -77,-51 -105,-133 -85,-246zm1817 -642c-57,0 -126,30 -209,91 -166,134 -264,299 -299,494 -23,94 -18,187 14,278 44,121 121,180 227,180 121,0 273,-85 458,-257 179,-184 289,-313 327,-392 2,-14 -16,-25 -54,-31 -2,0 -7,2 -13,8 -8,11 -60,70 -156,178 -234,235 -407,352 -524,352l-2 0c-28,0 -54,-10 -75,-34 -71,-91 -89,-201 -59,-327 17,-93 53,-180 110,-262 101,-127 187,-191 257,-191 26,7 37,17 34,34 3,17 13,25 27,25 23,0 42,-5 54,-16l3 -17c-10,-74 -46,-113 -107,-113l-13 0zm1 -1154c0,-2 1,-7 5,-15 48,-47 99,-70 147,-70l18 0c59,0 108,34 144,104l0 2c-39,2 -71,2 -94,2l-64 0c-107,0 -159,-9 -156,-23zm893 97c46,-4 89,-8 132,-12 -87,311 -220,677 -402,1097l-2 0 1 -2c66,-290 115,-496 147,-614 45,-178 86,-335 124,-469zm36 -125c46,-159 87,-279 121,-363 40,-97 65,-150 77,-160l2 0c13,0 5,91 -20,273 -13,74 -30,155 -51,240 -46,2 -88,6 -129,10zm-197 144c-10,28 -18,53 -26,81 -109,438 -196,839 -261,1201l-31 180c-15,81 -26,155 -32,225 -43,419 16,629 177,629l12 0c66,0 156,-53 268,-157 133,-139 258,-296 371,-470 88,-136 139,-218 149,-246 -1,-27 -9,-40 -26,-40 -11,0 -25,6 -39,17 -119,184 -219,328 -304,436 -190,237 -326,356 -406,356l-7 0c-13,0 -24,-6 -35,-17 -74,-84 -78,-309 -14,-671 6,-32 13,-76 25,-130 48,-95 107,-212 172,-349 185,-413 326,-778 419,-1089 227,-24 393,-34 502,-34 85,0 179,6 284,19 85,12 142,28 171,42 34,13 53,34 61,62 -4,36 6,54 29,54l2 0c14,0 25,-10 31,-29 13,-74 -16,-131 -84,-172 -139,-57 -329,-84 -570,-84 -87,0 -200,4 -336,14 -19,2 -38,2 -58,5 30,-104 50,-199 66,-290 19,-105 26,-189 22,-257 -3,-99 -35,-148 -92,-148 -74,0 -148,86 -228,261 -52,110 -109,267 -173,472 -167,14 -290,23 -369,27 -50,-133 -123,-201 -221,-201l-21 0c-42,0 -90,15 -141,44 -70,47 -111,96 -120,149 -4,21 -1,42 6,61 14,54 94,81 238,81l166 0c10,0 25,0 44,-2 5,19 8,40 10,64 -3,29 5,44 22,44l6 0c20,-5 32,-12 35,-28 2,-14 3,-42 -1,-80l3 -4c51,0 152,-9 304,-26z"/>
 </g>
</svg>
