<?xml version="1.0" encoding="UTF-8"?>
<!DOCTYPE svg PUBLIC "-//W3C//DTD SVG 1.1//EN" "http://www.w3.org/Graphics/SVG/1.1/DTD/svg11.dtd">
<!-- Creator: CorelDRAW X7 -->
<svg xmlns="http://www.w3.org/2000/svg" xml:space="preserve" width="10cm" height="6cm" version="1.1" style="shape-rendering:geometricPrecision; text-rendering:geometricPrecision; image-rendering:optimizeQuality; fill-rule:evenodd; clip-rule:evenodd"
viewBox="0 0 10000 6000"
 xmlns:xlink="http://www.w3.org/1999/xlink">
 <defs>
  <style type="text/css">
   <![CDATA[
    .fil0 {fill:#BE905C;fill-rule:nonzero}
   ]]>
  </style>
 </defs>
 <g id="Layer_x0020_1">
  <metadata id="CorelCorpID_0Corel-Layer"/>
  <g id="_976549568">
   <g>
    <path class="fil0" d="M2297 971c37,31 55,64 41,74 -13,9 -54,-8 -91,-39l50 -35zm-1732 258l-139 -104 0 -1 46 -72 47 -67 47 -63 49 -57 50 -53 50 -48 51 -44 52 -39 53 -35 54 -30 54 -27 56 -21 56 -18 56 -13 58 -9 58 -6 60 -1 60 3 60 7 62 11 63 15 64 19 64 23 66 27 66 31 67 34 67 39 67 42 68 45 67 49 67 51 66 54 -50 35 -55 -45 -55 -42 -54 -39 -54 -36 -54 -34 -53 -30 -54 -28 -53 -25 -54 -22 -54 -19 -55 -16 -55 -13 -55 -10 -54 -6 -55 -3 -55 1 -55 5 -54 9 -55 12 -53 17 -54 21 -52 25 -53 30 -51 34 -51 38 -50 43 -50 48 -49 52 -48 57 -47 61 -46 67 -45 71 0 0zm223 3036l-92 -4 0 0 -75 -86 -71 -87 -64 -90 -60 -90 -55 -93 -51 -94 -45 -95 -42 -96 -37 -98 -32 -99 -29 -100 -24 -101 -21 -102 -16 -103 -12 -103 -9 -103 -4 -104 -1 -104 3 -104 7 -103 11 -104 14 -103 18 -102 22 -102 26 -101 29 -100 32 -99 36 -97 40 -96 43 -94 47 -93 50 -90 139 104 -50 90 -46 92 -43 94 -40 95 -36 96 -32 98 -29 99 -25 100 -22 101 -18 102 -14 102 -10 102 -7 103 -3 102 0 103 5 102 8 102 12 101 16 100 20 100 24 98 28 97 31 96 36 94 39 92 44 91 47 87 50 86 55 82 58 80 61 76 64 73 0 0zm1095 -393l139 103 -1 1 -29 44 -29 44 -31 42 -31 42 -31 40 -32 40 -33 38 -34 36 -34 35 -35 34 -35 31 -36 29 -37 27 -38 24 -38 22 -38 19 -40 16 -40 13 -41 10 -42 6 -43 3 -44 -1 -46 -6 -48 -10 -50 -16 -53 -21 -56 -28 -57 -35 -58 -42 -58 -46 -55 -51 -53 -54 92 4 38 39 35 32 32 26 30 21 30 19 31 15 33 13 34 11 36 8 37 4 38 1 38 -2 38 -6 38 -9 38 -12 37 -16 38 -18 36 -21 37 -24 35 -26 36 -28 34 -31 35 -33 33 -34 34 -36 32 -38 32 -39 31 -40 31 -41 30 -43 30 -43 28 -43 0 1zm0 -1c9,-14 47,-1 85,28 39,29 62,64 53,77l-138 -105zm-694 -975l-128 -113 77 -32 76 -27 72 -21 71 -17 68 -11 65 -7 63 -1 61 3 60 8 58 13 58 20 59 27 62 36 60 45 54 50 43 51 35 50 27 51 22 52 17 54 12 56 8 59 4 62 -1 64 -5 67 -10 70 -14 73 -19 74 -23 78 -28 79 -33 82 -38 84 -139 -103 37 -83 33 -81 28 -79 23 -76 18 -74 14 -71 9 -68 5 -65 1 -62 -3 -58 -8 -56 -11 -51 -15 -47 -18 -42 -19 -37 -21 -30 -19 -22 -16 -15 -16 -12 -22 -13 -30 -14 -39 -13 -45 -10 -51 -7 -54 -3 -59 2 -62 6 -65 11 -68 16 -71 21 -74 26 -76 31zm0 0c-17,8 -59,-12 -95,-43 -35,-32 -50,-63 -33,-70l128 113z"/>
   </g>
   <g>
    <path class="fil0" d="M3243 2783c25,31 20,51 -10,44 -31,-7 -75,-38 -100,-70l110 26zm-807 269l-140 -102 0 0 17 -37 17 -37 18 -35 20 -34 19 -33 21 -32 21 -30 22 -28 23 -27 24 -26 24 -23 25 -22 25 -19 26 -18 27 -15 28 -13 28 -11 29 -8 30 -5 31 -3 32 1 33 3 36 8 38 12 41 18 44 23 45 28 45 34 43 37 41 39 38 42 36 44 -110 -26 -26 -31 -24 -26 -21 -21 -18 -15 -16 -12 -16 -10 -16 -9 -19 -8 -21 -6 -23 -5 -24 -3 -25 0 -26 2 -26 5 -26 7 -25 9 -26 13 -25 14 -25 17 -24 18 -24 21 -24 23 -23 25 -22 26 -21 28 -21 29 -21 31 -19 33 -19 33 -18 35 -17 35 -16 37 0 0zm43 536l7 77 0 0 -32 -21 -31 -23 -30 -25 -27 -25 -24 -25 -21 -25 -18 -24 -15 -23 -13 -23 -11 -22 -9 -22 -7 -22 -6 -21 -5 -22 -4 -22 -2 -21 -2 -22 0 -22 0 -21 1 -22 2 -22 3 -22 3 -22 5 -22 5 -22 5 -22 6 -22 7 -22 7 -22 7 -21 8 -22 8 -21 140 102 -8 21 -8 21 -7 21 -7 21 -6 22 -6 21 -6 21 -4 22 -4 21 -4 21 -2 21 -2 21 -1 20 -1 21 1 20 1 19 3 20 3 19 4 18 5 18 6 17 6 16 8 15 7 13 8 13 8 10 8 9 7 8 7 6 7 6 9 7 11 7 0 0zm222 -162l137 106 0 0 -7 10 -7 10 -7 10 -7 10 -7 11 -8 10 -7 10 -7 9 -8 10 -7 9 -8 10 -8 8 -8 9 -8 8 -9 7 -9 7 -9 7 -9 6 -10 5 -10 5 -10 4 -11 3 -12 2 -12 1 -14 0 -14 -1 -16 -3 -17 -4 -19 -7 -21 -8 -23 -11 -23 -14 -7 -77 2 1 3 2 3 1 5 2 5 1 7 1 7 1 7 -1 8 0 8 -2 9 -2 8 -3 8 -4 8 -4 8 -6 8 -5 8 -7 8 -7 8 -7 7 -8 8 -8 7 -9 7 -9 8 -9 7 -10 7 -10 7 -10 7 -10 8 -10 7 -10 7 -10 7 -10 0 0zm484 -834l137 107 1 -1 -14 26 -14 26 -14 27 -13 26 -14 27 -14 27 -14 26 -15 27 -14 27 -14 26 -15 27 -14 27 -15 27 -14 26 -15 27 -15 27 -15 26 -15 26 -15 27 -16 26 -15 26 -16 26 -16 26 -16 26 -16 25 -16 26 -16 25 -17 25 -17 25 -16 24 -17 25 -18 24 -137 -106 17 -24 17 -25 17 -24 16 -25 17 -25 16 -25 16 -25 16 -25 16 -26 16 -26 15 -26 16 -26 15 -26 15 -26 15 -27 15 -26 15 -26 15 -27 15 -27 14 -26 15 -27 14 -27 14 -26 15 -27 14 -27 14 -26 14 -27 14 -27 14 -26 13 -26 14 -27 14 -26 1 -2zm-1 2c7,-15 45,-3 83,25 38,29 63,64 56,79l-139 -104zm184 240l-142 -93 1 0 0 -13 1 -12 0 -12 1 -11 0 -11 0 -10 0 -10 -1 -9 0 -8 0 -7 -1 -7 -1 -7 0 -5 -1 -5 -1 -4 -1 -3 0 -1 0 1 3 6 11 13 27 26 39 25 22 8 8 1 3 0 0 0 -1 0 -2 2 -2 2 -3 2 -3 4 -3 3 -137 -107 4 -4 3 -4 4 -4 4 -3 4 -3 4 -2 5 -2 8 -1 13 2 27 10 43 27 31 30 14 18 7 11 4 9 2 7 2 7 1 6 2 7 1 7 1 8 0 8 1 9 0 9 0 9 0 10 0 11 0 11 0 11 -1 12 0 13 -1 13 0 0zm0 0c-1,20 -34,14 -73,-11 -39,-26 -70,-63 -68,-82l141 93zm311 544l138 106 0 0 -44 64 -42 53 -39 45 -36 35 -34 26 -32 19 -32 10 -33 3 -41 -8 -61 -31 -60 -51 -34 -42 -22 -37 -16 -36 -13 -39 -12 -41 -9 -43 -9 -45 -6 -48 -6 -48 -4 -50 -4 -50 -3 -50 -1 -50 -1 -49 -1 -48 0 -46 1 -44 0 -40 1 -38 1 -34 1 -30 142 93 -1 30 -1 33 -1 38 -1 40 0 44 0 45 0 47 1 49 2 49 3 50 3 49 5 49 5 47 7 46 7 43 9 41 11 37 11 32 11 26 10 18 1 2 -20 -17 -19 -10 6 1 19 -2 25 -9 29 -16 32 -25 35 -34 38 -43 41 -53 43 -63 0 0zm613 -1904l141 96 0 0 -8 50 -9 53 -10 55 -11 56 -12 59 -12 60 -14 62 -14 63 -15 64 -16 66 -17 66 -17 66 -18 68 -19 67 -19 68 -20 67 -21 67 -21 67 -21 66 -23 65 -22 65 -24 63 -23 62 -24 60 -25 59 -25 57 -25 55 -25 53 -26 50 -27 48 -26 45 -27 42 -138 -106 27 -41 26 -45 26 -47 25 -50 26 -52 25 -55 25 -56 24 -59 24 -60 23 -61 24 -63 22 -64 22 -66 22 -65 21 -67 20 -67 20 -67 20 -68 18 -67 18 -67 18 -66 16 -66 16 -65 15 -64 14 -63 14 -62 12 -60 12 -58 11 -57 10 -54 9 -52 8 -50 0 0zm12 -1049l104 18 11 14 14 25 10 25 8 26 7 27 5 29 5 31 4 33 4 35 2 36 2 38 1 39 1 40 0 40 0 42 -1 42 -1 42 -2 43 -2 42 -2 42 -3 42 -2 41 -3 40 -3 39 -4 38 -3 36 -3 35 -4 33 -3 31 -4 29 -3 27 -3 24 -3 21 -141 -96 3 -21 3 -24 3 -26 3 -29 4 -31 3 -33 3 -34 4 -37 3 -37 3 -39 3 -40 3 -41 2 -41 3 -42 2 -42 1 -42 1 -42 1 -42 1 -41 -1 -40 0 -40 -2 -38 -1 -37 -3 -35 -3 -34 -4 -31 -5 -30 -5 -26 -6 -24 -6 -20 -6 -15 -5 -9 10 14zm10 115l-139 -104 0 0 2 -5 3 -5 3 -5 2 -5 3 -6 3 -5 3 -5 3 -5 3 -4 3 -5 3 -5 3 -4 4 -4 3 -4 4 -4 4 -3 4 -3 5 -3 4 -2 6 -2 6 -1 6 -1 9 0 10 1 13 4 17 6 20 10 22 14 20 16 17 15 14 14 11 13 -104 -18 2 2 5 5 8 7 11 8 13 8 11 6 9 4 4 1 3 0 0 0 -1 0 -1 1 -3 1 -2 1 -3 1 -2 2 -3 3 -3 3 -3 3 -3 3 -3 4 -3 4 -2 4 -3 4 -3 5 -3 5 -2 5 -3 5 -2 5 -3 5 -3 5 -2 5 0 0zm-165 852l-142 -95 0 -1 3 -21 3 -23 3 -24 3 -25 3 -26 3 -26 3 -28 4 -28 3 -29 4 -29 4 -29 4 -30 5 -31 4 -30 5 -30 4 -31 6 -30 5 -31 5 -30 6 -29 6 -29 6 -29 6 -28 7 -28 7 -26 7 -26 7 -25 8 -24 8 -23 8 -22 9 -20 9 -20 139 104 -9 18 -8 20 -8 21 -8 22 -7 24 -8 24 -7 26 -6 26 -7 27 -6 28 -6 28 -6 29 -6 30 -5 29 -5 30 -5 31 -5 30 -5 30 -4 30 -4 31 -4 29 -4 30 -4 29 -4 29 -3 28 -4 27 -3 27 -3 26 -3 25 -3 23 -3 23 -2 22 0 0zm-73 2014l-141 -88 0 0 -5 -59 -4 -60 -3 -61 -2 -61 -3 -62 -1 -63 -2 -63 0 -63 -1 -64 1 -65 0 -64 1 -65 2 -66 2 -65 2 -65 2 -66 3 -65 4 -66 3 -65 4 -65 5 -65 4 -65 5 -64 6 -64 5 -63 6 -63 6 -63 6 -61 6 -62 7 -60 6 -60 7 -58 142 95 -7 59 -7 59 -6 60 -7 61 -6 62 -6 62 -5 63 -6 64 -5 63 -5 64 -5 65 -4 65 -4 65 -4 65 -3 65 -3 65 -3 66 -2 65 -2 65 -1 65 -1 65 -1 64 0 64 0 64 1 63 1 63 2 62 2 62 3 61 3 60 4 59 4 59 0 0zm383 334l138 106 0 0 -35 45 -33 39 -32 32 -30 27 -30 22 -28 16 -28 11 -28 7 -29 1 -32 -5 -39 -13 -47 -25 -47 -36 -36 -36 -27 -32 -21 -31 -17 -31 -16 -31 -14 -32 -12 -34 -11 -34 -11 -35 -9 -36 -9 -36 -7 -37 -7 -37 -6 -36 -6 -36 -5 -36 -4 -34 -3 -33 -3 -32 141 88 3 31 3 33 5 33 4 35 6 35 6 36 6 35 8 36 8 34 9 34 10 33 10 32 11 29 12 28 12 24 11 21 11 15 6 9 -1 -1 -9 -7 -7 -4 3 1 13 1 18 -1 21 -5 24 -9 26 -15 28 -20 29 -26 31 -31 33 -38 33 -44 0 0zm560 -1095l140 102 -1 0 -13 33 -15 33 -14 34 -15 35 -15 34 -15 36 -15 35 -16 36 -16 36 -16 36 -16 36 -17 37 -17 36 -17 37 -18 36 -17 36 -18 36 -18 36 -18 36 -19 36 -18 35 -19 35 -19 34 -19 34 -20 34 -20 33 -19 32 -20 32 -21 31 -20 31 -20 29 -21 29 -138 -106 21 -29 20 -29 21 -30 20 -31 19 -32 20 -32 20 -33 19 -33 19 -34 19 -34 19 -35 18 -35 19 -35 18 -36 18 -36 18 -36 17 -36 18 -37 17 -36 16 -36 17 -37 16 -36 17 -36 16 -36 15 -35 16 -36 15 -35 15 -35 14 -34 15 -34 14 -33 14 -33 0 0zm0 0c6,-16 43,-6 81,23 39,28 65,63 58,79l-139 -102zm323 -1654l142 93 0 0 -3 52 -3 52 -3 53 -4 52 -5 53 -5 53 -5 53 -6 53 -6 53 -7 53 -7 53 -8 53 -8 53 -9 53 -9 53 -10 52 -10 53 -11 53 -11 52 -12 52 -12 53 -13 51 -13 52 -14 52 -15 51 -15 51 -15 50 -16 51 -17 50 -17 49 -18 50 -18 49 -140 -102 18 -49 18 -49 17 -49 16 -50 16 -50 16 -50 15 -51 14 -51 14 -51 13 -51 13 -52 12 -52 12 -52 11 -52 11 -53 10 -52 10 -53 9 -52 9 -53 8 -53 7 -52 8 -53 6 -53 7 -53 5 -52 6 -53 5 -53 4 -52 4 -52 3 -53 4 -52 2 -51 0 0zm26 -214l-98 -115 0 0 19 4 24 10 31 17 33 24 25 24 18 20 11 17 9 15 7 14 6 13 5 13 4 13 4 13 3 13 3 14 2 13 3 14 1 13 2 14 1 13 1 14 1 13 1 12 0 13 1 12 0 11 0 11 0 11 0 9 -1 9 0 8 0 8 -142 -93 0 -7 1 -8 0 -9 0 -9 0 -10 0 -11 0 -11 0 -11 -1 -12 -1 -13 0 -12 -1 -13 -2 -12 -1 -13 -2 -12 -2 -13 -2 -12 -2 -11 -3 -12 -3 -10 -3 -10 -4 -9 -3 -7 -3 -6 -2 -3 1 0 5 6 12 11 17 13 16 9 8 3 1 0 0 0zm-276 1528l-142 -93 0 0 1 -20 2 -27 2 -33 3 -39 3 -44 3 -49 5 -53 4 -56 5 -60 6 -63 6 -64 7 -67 7 -68 8 -69 9 -69 8 -69 10 -68 10 -67 10 -66 12 -64 11 -61 13 -58 12 -55 14 -51 14 -46 15 -42 15 -36 16 -31 17 -25 19 -18 22 -11 31 -1 98 115 -5 1 -13 7 -15 15 -16 22 -15 29 -14 35 -15 40 -14 46 -13 50 -12 54 -13 57 -11 61 -11 64 -11 65 -10 67 -9 68 -9 69 -8 69 -8 68 -7 68 -7 66 -6 65 -6 62 -5 60 -5 57 -4 52 -4 49 -3 44 -2 38 -2 33 -2 27 -1 20 0 0zm91 1560l-133 -63 -1 -1 -13 -32 -11 -34 -10 -37 -9 -40 -9 -43 -7 -45 -7 -47 -7 -50 -5 -52 -5 -53 -5 -55 -4 -56 -3 -57 -3 -59 -3 -58 -2 -60 -2 -59 -1 -59 -1 -59 0 -59 -1 -57 0 -57 0 -55 1 -54 0 -53 1 -50 1 -48 1 -46 1 -43 2 -41 1 -37 1 -34 142 93 -1 34 -2 37 -1 40 -1 43 -1 46 -1 48 -1 50 -1 52 0 54 0 55 0 57 0 57 1 59 1 58 1 59 2 60 2 58 2 59 3 58 4 57 4 55 4 55 5 53 6 51 6 48 7 47 7 44 8 40 9 38 9 34 10 30 10 25 -1 -1zm509 -447l138 105 0 0 -11 18 -12 19 -13 22 -15 24 -15 25 -17 27 -17 27 -19 28 -19 28 -20 29 -21 28 -21 28 -22 27 -22 27 -23 25 -23 24 -24 22 -24 20 -24 18 -24 15 -25 13 -25 10 -26 6 -27 3 -30 -3 -37 -9 -46 -22 -54 -37 -45 -42 -32 -40 -26 -39 -21 -42 133 63 16 30 14 22 8 10 -2 -2 -11 -8 -3 -1 9 2 15 1 19 -2 21 -5 22 -9 22 -11 23 -15 23 -17 23 -19 23 -21 22 -24 23 -24 22 -26 21 -27 21 -28 21 -28 19 -28 19 -28 19 -28 17 -27 17 -26 15 -25 15 -24 13 -22 12 -19 11 -18 0 0zm243 -459l115 117 13 -7 -6 15 -7 15 -6 15 -6 14 -7 15 -6 15 -7 14 -6 15 -7 14 -7 15 -7 14 -6 14 -7 15 -7 14 -8 14 -7 14 -7 14 -7 14 -8 14 -7 14 -8 14 -8 14 -7 14 -8 13 -8 14 -8 14 -8 14 -8 14 -9 14 -8 13 -9 14 -8 14 -138 -105 8 -14 9 -14 8 -13 8 -14 8 -14 8 -14 8 -13 8 -14 8 -14 8 -14 7 -13 8 -14 7 -14 8 -14 7 -14 7 -14 7 -14 7 -14 7 -14 7 -14 7 -14 7 -14 7 -15 6 -14 7 -14 6 -15 7 -14 6 -15 6 -15 7 -14 6 -15 6 -15 12 -8zm-12 8c6,-16 43,-6 81,22 39,29 65,64 59,80l-140 -102zm556 -198l134 110 0 0 -15 12 -15 12 -15 11 -15 11 -16 11 -16 10 -16 9 -17 9 -17 9 -17 8 -17 8 -17 8 -18 7 -18 6 -18 7 -18 6 -18 6 -18 5 -19 5 -18 5 -19 4 -18 4 -19 4 -19 3 -19 3 -19 3 -18 2 -19 3 -19 2 -19 1 -18 2 -19 1 -115 -117 18 -1 18 -1 18 -2 18 -2 19 -2 18 -2 18 -3 18 -3 18 -3 18 -4 18 -4 18 -4 18 -4 18 -5 17 -5 18 -6 17 -6 18 -6 17 -6 17 -7 17 -7 16 -8 17 -8 16 -9 16 -8 16 -10 15 -9 16 -10 15 -11 14 -11 15 -11 14 -12 0 0zm91 -164l118 35 0 0 9 14 6 13 5 11 2 10 2 9 1 9 0 8 -1 9 -1 8 -1 8 -2 7 -3 8 -3 8 -3 7 -4 8 -4 7 -4 8 -4 7 -5 7 -5 7 -4 6 -6 7 -5 6 -5 7 -5 6 -5 5 -6 6 -5 5 -5 5 -5 5 -4 4 -5 4 -134 -110 4 -3 5 -5 4 -4 5 -5 5 -5 5 -5 5 -5 5 -6 5 -6 5 -6 4 -6 5 -7 4 -6 5 -7 4 -6 4 -7 3 -7 3 -6 3 -7 3 -7 2 -6 2 -7 1 -6 1 -6 0 -6 0 -6 0 -4 -1 -5 -1 -3 0 -2 0 0 1 3 0 0zm-266 155l-132 -112 0 0 7 -4 9 -5 9 -5 10 -6 11 -5 11 -6 13 -6 13 -7 13 -6 14 -6 15 -6 15 -6 15 -6 15 -6 16 -6 15 -5 16 -4 16 -5 15 -4 16 -3 15 -3 15 -2 15 -1 15 -1 15 1 15 1 17 3 20 6 26 12 36 22 38 32 25 29 -118 -35 12 14 23 19 19 12 8 3 -1 0 -5 -1 -9 -1 -10 0 -11 0 -12 2 -14 1 -13 3 -14 3 -15 3 -15 5 -15 4 -14 5 -15 5 -15 6 -15 6 -14 5 -15 6 -13 7 -13 6 -13 6 -12 6 -12 5 -10 6 -10 5 -9 5 -7 5 -7 4 0 0zm-166 740l-126 -48 -1 -2 -16 -29 -16 -30 -13 -29 -13 -30 -10 -28 -10 -29 -8 -28 -6 -28 -5 -28 -4 -28 -2 -27 -1 -27 0 -27 2 -26 3 -26 5 -26 5 -25 8 -25 8 -25 10 -24 11 -24 13 -23 14 -23 15 -23 17 -22 18 -22 19 -21 21 -21 22 -20 23 -20 25 -19 26 -19 132 112 -25 18 -24 19 -23 19 -21 19 -20 21 -19 20 -17 21 -16 21 -15 22 -13 22 -13 23 -10 23 -10 23 -8 23 -7 24 -5 24 -5 24 -3 25 -1 24 -1 25 1 25 2 25 4 25 4 26 6 25 7 25 9 25 9 26 11 25 11 25 13 25 14 24 -1 -1zm474 -4l133 111 0 0 -21 13 -20 13 -21 12 -21 11 -20 11 -21 9 -22 9 -21 8 -21 6 -21 6 -22 5 -21 4 -22 2 -21 2 -22 1 -22 -1 -22 -2 -23 -4 -23 -5 -25 -7 -25 -9 -27 -11 -28 -15 -30 -17 -30 -21 -29 -23 -28 -24 -25 -25 -23 -26 -20 -25 -19 -26 -17 -26 126 48 12 18 11 15 10 12 8 10 7 7 6 5 4 4 5 3 6 3 8 4 10 5 12 4 14 4 15 3 16 3 18 1 17 1 19 -1 19 -1 19 -2 19 -4 20 -4 20 -6 19 -6 21 -7 20 -8 20 -10 20 -10 20 -10 20 -12 20 -12 19 -14 0 1zm630 -1197l142 95 0 0 -7 44 -7 44 -8 44 -8 44 -10 43 -10 43 -10 43 -12 43 -12 42 -13 43 -14 41 -14 42 -16 41 -16 40 -18 40 -18 40 -20 38 -20 39 -22 38 -22 37 -24 36 -24 36 -26 35 -27 34 -29 34 -29 32 -31 32 -32 31 -33 30 -34 29 -36 28 -37 27 -133 -111 37 -27 35 -28 34 -28 33 -30 31 -30 30 -31 29 -32 28 -33 27 -34 25 -34 24 -36 24 -36 22 -36 21 -37 20 -38 19 -39 19 -39 17 -39 16 -40 16 -41 14 -41 14 -41 13 -41 12 -42 11 -43 11 -42 9 -43 9 -43 9 -43 8 -44 7 -43 6 -44 0 1zm52 -66l-127 -114 1 -1 10 -3 10 -1 11 -1 12 1 15 2 20 7 27 14 32 22 27 24 17 20 11 15 7 12 5 11 3 9 3 10 3 8 2 9 1 9 1 9 1 9 1 8 0 9 0 8 0 9 0 8 0 8 0 8 -1 7 0 7 -1 6 -1 7 0 5 -142 -95 1 -6 0 -5 1 -7 1 -6 0 -7 0 -7 1 -7 0 -8 0 -7 -1 -8 0 -8 0 -7 -1 -8 -1 -7 -1 -6 -2 -7 -1 -5 -2 -5 -1 -4 -1 -2 0 1 4 4 9 10 17 16 22 15 16 8 8 3 2 1 -2 0 -4 0 -6 1 -8 2 1 0zm-150 322l-137 -72 0 0 -5 -13 -3 -14 -2 -13 -2 -14 0 -13 0 -13 1 -14 1 -13 2 -14 3 -13 3 -14 4 -13 4 -13 5 -14 5 -13 6 -13 6 -12 6 -13 7 -12 8 -12 7 -11 8 -11 9 -11 8 -10 9 -9 10 -9 9 -9 10 -7 10 -7 10 -7 10 -5 11 -5 127 114 -8 4 -9 4 -9 6 -9 6 -9 7 -9 8 -8 8 -9 9 -8 10 -7 10 -8 10 -7 11 -7 11 -7 12 -6 11 -6 12 -5 13 -5 12 -5 12 -4 13 -3 12 -3 13 -3 12 -2 12 -1 13 -1 11 0 12 1 11 1 10 2 10 2 9 2 8 0 0zm67 53l75 110 -6 -2 -7 -3 -8 -3 -8 -3 -8 -4 -8 -3 -9 -4 -8 -4 -9 -5 -9 -4 -10 -5 -9 -5 -10 -6 -11 -7 -11 -6 -11 -8 -11 -8 -11 -9 -12 -9 -11 -10 -11 -10 -11 -10 -10 -10 -9 -11 -8 -10 -8 -10 -7 -10 -6 -9 -6 -10 -5 -9 -4 -9 -4 -10 -3 -9 137 72 2 6 3 5 2 4 2 4 2 3 1 3 2 2 1 1 0 1 1 0 0 0 -1 0 0 -1 -1 0 0 -1 -1 0 1 1 1 0 1 1 2 1 2 2 3 1 4 2 4 2 4 2 5 2 5 3 5 2 5 2 6 3 6 2 6 2 -6 -2zm6 2c35,14 78,49 95,78 18,29 3,42 -32,28l-63 -106zm307 117l11 79 17 10 -4 -2 -5 -2 -4 -2 -5 -2 -5 -3 -6 -2 -6 -2 -6 -3 -6 -3 -7 -2 -7 -3 -7 -3 -8 -3 -7 -3 -8 -3 -9 -3 -8 -3 -9 -3 -9 -3 -9 -4 -10 -3 -10 -3 -10 -4 -10 -3 -10 -4 -11 -4 -11 -3 -11 -4 -12 -4 -12 -4 -12 -4 -12 -4 -75 -110 13 4 12 4 12 4 12 4 12 4 11 4 11 4 11 4 11 3 10 4 11 4 10 3 10 4 9 3 10 4 9 3 9 3 9 4 8 3 9 3 8 3 8 4 8 3 7 3 8 3 7 3 7 3 7 3 7 3 7 3 6 3 7 3 17 9zm-17 -9c37,18 77,54 89,81 13,27 -7,34 -44,17l-45 -98zm132 261l-141 -96 0 0 0 -7 1 -7 1 -7 1 -7 1 -6 1 -6 1 -6 1 -6 1 -6 1 -5 1 -6 0 -5 0 -4 1 -5 0 -4 -1 -4 0 -4 0 -3 -1 -3 -1 -2 0 -1 0 -1 0 1 1 1 2 3 3 4 5 5 5 5 5 4 4 3 3 2 1 0 -11 -79 14 9 14 10 15 11 15 13 14 13 13 13 10 13 8 11 7 10 5 9 3 9 3 7 2 7 1 6 1 7 1 6 0 6 0 5 0 6 0 6 -1 6 -1 5 0 6 -1 6 -1 6 -1 6 -1 6 -1 7 -1 6 -1 7 -1 7 -1 7 0 0zm23 525l138 106 0 0 -29 36 -26 28 -23 21 -23 15 -22 9 -25 2 -45 -14 -73 -52 -35 -42 -14 -29 -9 -26 -7 -28 -5 -31 -3 -32 -2 -34 -2 -36 0 -38 1 -38 1 -40 2 -39 3 -40 3 -39 3 -38 4 -37 4 -35 3 -34 4 -31 3 -28 3 -25 3 -21 2 -18 2 -13 141 96 -2 13 -2 17 -2 22 -3 25 -4 28 -3 31 -4 33 -4 35 -3 37 -3 38 -3 38 -3 39 -2 39 -1 39 -1 38 0 37 1 34 2 33 4 30 4 27 5 23 6 17 3 7 -13 -15 -48 -34 -16 -6 7 -1 15 -6 19 -13 22 -19 25 -27 27 -34 0 0zm398 -767l139 103 0 0 -11 24 -11 25 -11 25 -11 25 -10 24 -11 25 -11 25 -11 25 -11 25 -12 24 -11 25 -11 25 -12 25 -11 24 -12 25 -12 24 -12 25 -12 24 -12 24 -13 24 -13 24 -13 24 -13 24 -14 24 -13 23 -14 23 -15 23 -14 23 -15 23 -16 23 -15 22 -16 22 -138 -106 16 -22 16 -22 15 -23 15 -22 14 -23 14 -23 14 -23 14 -23 13 -24 13 -23 13 -24 13 -24 13 -24 12 -24 12 -24 12 -24 12 -24 11 -25 12 -24 11 -25 12 -25 11 -24 11 -25 11 -25 11 -25 11 -24 11 -25 11 -25 11 -25 11 -25 11 -24 11 -25 0 0zm405 -231l-136 -68 0 0 -2 -4 10 13 41 34 32 15 5 1 -4 0 -7 4 -9 5 -9 8 -10 10 -11 12 -10 13 -11 15 -11 16 -11 16 -10 18 -11 18 -10 18 -10 19 -10 19 -9 18 -9 18 -9 17 -8 17 -7 15 -7 15 -6 13 -5 12 -4 9 -4 8 -2 6 -2 4 -139 -103 1 -4 3 -5 3 -8 5 -10 5 -12 6 -13 7 -15 7 -15 8 -17 9 -18 9 -18 9 -18 10 -19 10 -19 11 -19 10 -18 11 -18 11 -17 11 -16 12 -15 11 -14 11 -13 11 -11 11 -9 12 -8 12 -5 14 -3 23 2 49 22 57 47 24 32 12 23 0 0zm31 572l-142 -89 0 0 0 -14 -1 -15 0 -15 0 -16 0 -17 0 -18 0 -18 0 -19 0 -20 0 -19 0 -20 1 -21 0 -20 0 -21 0 -20 0 -21 0 -20 -1 -21 0 -20 -1 -19 -1 -19 -1 -19 -1 -18 -1 -18 -2 -17 -2 -16 -2 -15 -2 -14 -3 -12 -3 -12 -3 -9 -2 -8 136 68 5 13 4 14 4 14 3 15 2 16 3 16 2 17 1 18 2 18 1 19 1 19 1 20 0 20 1 20 0 21 0 20 0 21 0 21 0 21 0 20 0 20 0 20 0 20 -1 19 0 19 0 18 0 18 0 17 0 16 1 15 0 14 1 13 0 0zm134 487l133 111 -1 1 -23 10 -22 7 -23 2 -27 -2 -33 -10 -44 -23 -45 -33 -34 -34 -23 -28 -17 -26 -14 -26 -12 -25 -11 -26 -9 -27 -9 -28 -8 -29 -7 -28 -6 -30 -6 -29 -6 -29 -4 -30 -4 -28 -4 -28 -3 -28 -3 -26 -3 -24 -2 -24 -2 -21 -1 -20 -1 -18 -1 -15 -1 -12 142 89 0 13 1 14 1 18 2 19 2 21 2 23 2 25 3 25 3 27 4 27 4 28 4 28 6 29 5 28 6 28 7 27 7 26 8 25 9 24 8 21 9 19 9 16 7 11 2 3 -6 -6 -15 -11 -13 -7 0 0 9 1 13 -2 17 -5 19 -9 -1 1zm482 -762l137 106 0 0 -12 18 -12 20 -13 21 -13 23 -13 24 -14 24 -14 26 -15 27 -14 27 -15 28 -15 28 -15 29 -16 29 -15 29 -16 29 -16 29 -16 29 -16 28 -16 28 -16 27 -17 27 -16 26 -16 25 -17 24 -16 23 -16 21 -16 21 -16 18 -16 18 -16 15 -16 14 -16 12 -133 -111 15 -11 15 -13 15 -15 16 -16 15 -19 16 -20 16 -21 16 -22 16 -24 16 -25 16 -25 16 -27 16 -27 16 -28 16 -28 16 -28 16 -29 16 -29 15 -29 16 -29 15 -29 15 -28 15 -28 15 -27 14 -27 14 -26 14 -25 14 -24 13 -23 13 -21 12 -20 13 -19 0 0zm395 -19l-142 -91 0 1 -1 -21 -2 -17 -3 -13 -3 -9 0 0 13 15 40 33 30 14 6 2 -3 0 -6 2 -8 3 -9 5 -10 7 -9 8 -11 9 -10 10 -11 11 -10 11 -11 12 -10 13 -11 12 -10 13 -9 13 -9 12 -9 12 -9 12 -7 11 -7 10 -7 9 -5 9 -5 7 -137 -106 4 -7 6 -8 6 -10 7 -10 8 -11 8 -12 9 -12 10 -13 9 -13 11 -13 10 -13 11 -13 11 -12 10 -12 12 -11 11 -11 11 -9 11 -9 11 -7 11 -7 11 -5 12 -3 15 -1 22 4 45 22 54 43 24 32 11 21 6 18 4 19 3 21 1 23 0 0zm-65 1808l-142 -94 0 0 4 -55 4 -56 4 -56 3 -56 4 -57 4 -56 3 -56 3 -57 4 -56 3 -57 3 -56 3 -57 3 -57 2 -57 3 -56 2 -57 3 -57 2 -56 2 -57 1 -57 2 -56 1 -57 2 -57 1 -56 0 -57 1 -56 0 -56 0 -57 0 -56 0 -56 -1 -56 -1 -56 142 91 1 56 1 56 0 57 0 56 0 56 0 57 -1 56 -1 57 -1 57 -1 56 -1 57 -2 57 -2 57 -2 56 -2 57 -2 57 -2 57 -3 57 -3 56 -2 57 -3 57 -3 56 -4 57 -3 57 -3 56 -4 57 -3 56 -4 56 -4 56 -3 57 -4 55 -4 56 0 0zm-414 1008l-133 -111 0 0 24 -21 24 -22 23 -24 22 -25 21 -25 20 -27 20 -28 19 -28 17 -30 17 -30 17 -30 15 -32 15 -32 14 -32 13 -33 12 -33 12 -34 11 -34 10 -34 10 -34 9 -34 9 -35 7 -34 8 -35 6 -34 6 -34 5 -34 5 -33 5 -33 3 -33 4 -32 2 -32 142 94 -3 33 -3 32 -4 33 -4 34 -5 34 -6 34 -6 34 -6 35 -8 35 -7 35 -9 35 -9 34 -10 35 -10 35 -12 34 -12 34 -12 34 -14 33 -14 33 -15 32 -15 32 -17 32 -17 30 -18 30 -19 29 -20 28 -21 28 -22 26 -22 25 -24 25 -24 23 -26 22 0 0zm-402 -247l141 89 0 0 1 14 2 13 2 13 3 12 3 11 3 11 4 9 4 9 4 7 3 6 3 3 1 1 -2 -1 -4 -4 -6 -5 -7 -5 -6 -3 -3 -2 0 0 3 1 6 1 7 1 8 0 9 -1 10 -2 10 -2 11 -4 11 -5 12 -6 11 -7 12 -8 13 -10 133 111 -13 10 -13 9 -13 8 -13 6 -13 6 -13 5 -14 3 -13 2 -14 1 -14 0 -14 -1 -16 -3 -18 -5 -19 -7 -22 -11 -24 -14 -25 -17 -23 -19 -21 -20 -16 -18 -13 -17 -11 -16 -9 -15 -8 -14 -7 -15 -5 -15 -5 -14 -4 -15 -4 -15 -2 -15 -2 -16 -1 -15 0 0zm784 -1653l137 106 0 0 -25 36 -26 38 -28 41 -29 43 -30 45 -31 47 -32 49 -33 51 -32 52 -34 53 -33 54 -33 56 -33 56 -33 57 -32 57 -32 58 -30 58 -30 58 -29 58 -27 58 -26 57 -24 57 -22 56 -21 55 -18 54 -16 53 -14 51 -11 50 -8 47 -6 46 -2 44 0 41 -141 -89 -1 -44 3 -46 5 -48 9 -49 11 -51 14 -52 17 -53 18 -55 21 -56 22 -56 25 -57 26 -58 27 -58 29 -58 30 -58 31 -59 31 -58 32 -58 33 -57 33 -56 34 -56 33 -54 33 -54 33 -52 33 -50 32 -49 31 -47 30 -46 29 -43 28 -41 27 -38 25 -36 0 0zm132 -202l139 105 0 0 -4 6 -4 7 -4 7 -4 6 -4 7 -4 6 -4 7 -4 6 -4 7 -4 6 -5 6 -4 7 -4 6 -4 6 -4 7 -4 6 -4 6 -4 7 -5 6 -4 6 -4 6 -4 7 -5 6 -4 6 -4 7 -5 6 -4 6 -4 6 -5 7 -4 6 -4 6 -5 6 -137 -106 4 -6 5 -6 4 -7 4 -6 5 -6 4 -6 4 -6 4 -7 5 -6 4 -6 4 -6 4 -7 5 -6 4 -6 4 -6 4 -7 4 -6 4 -6 4 -6 4 -7 4 -6 4 -6 5 -7 4 -6 4 -7 4 -6 3 -6 4 -7 4 -6 4 -7 4 -6 4 -7 0 0zm270 -532l139 103 -8 17 -7 17 -8 17 -8 17 -8 17 -8 17 -8 17 -8 17 -8 17 -8 17 -8 16 -8 17 -8 17 -9 17 -8 17 -8 16 -9 17 -8 17 -9 16 -8 17 -9 17 -8 16 -9 17 -9 16 -9 17 -9 16 -9 16 -9 17 -9 16 -10 16 -9 17 -9 16 -139 -105 10 -16 9 -16 9 -16 9 -17 9 -16 9 -16 9 -17 9 -16 9 -16 9 -17 8 -16 9 -17 8 -16 9 -17 8 -17 9 -16 8 -17 8 -17 8 -16 9 -17 8 -17 8 -17 8 -17 8 -16 8 -17 8 -17 8 -17 8 -17 7 -17 8 -17 8 -17 8 -17zm0 0c7,-15 44,-4 82,24 39,29 64,64 57,79l-139 -103z"/>
   </g>
  </g>
 </g>
</svg>
