<?xml version="1.0" encoding="UTF-8"?>
<!DOCTYPE svg PUBLIC "-//W3C//DTD SVG 1.1//EN" "http://www.w3.org/Graphics/SVG/1.1/DTD/svg11.dtd">
<svg xmlns="http://www.w3.org/2000/svg" xml:space="preserve" width="10cm" height="6cm" version="1.1" style="shape-rendering:geometricPrecision; text-rendering:geometricPrecision; image-rendering:optimizeQuality; fill-rule:evenodd; clip-rule:evenodd"
viewBox="0 0 10000 6000"
 xmlns:xlink="http://www.w3.org/1999/xlink">
 <defs>
  <style type="text/css">
   <![CDATA[
    .fil0 {fill:#BE905C;fill-rule:nonzero}
   ]]>
  </style>
 </defs>
 <g id="Layer_x0020_1">
  <metadata id="CorelCorpID_0Corel-Layer"/>
  <path class="fil0" d="M2501 749c-305,0 -608,129 -910,389 -76,70 -141,134 -195,195 -378,451 -642,901 -791,1349l-5 14c-133,399 -166,762 -101,1095 23,116 66,236 132,361 126,208 270,310 432,310 247,0 497,-116 752,-346 252,-243 423,-505 517,-788l6 -17c31,-94 50,-184 54,-271 6,-232 -87,-348 -280,-348l-27 0c-103,0 -238,29 -404,86 -101,30 -156,57 -165,85 -8,22 -1,36 24,38l17 0c215,-75 378,-114 489,-114l19 0c97,0 161,30 187,91 45,107 39,237 -13,394l-8 25 1 4c-3,0 -3,0 -3,3l-7 18c-18,55 -46,121 -84,200 -132,239 -281,425 -449,562 -198,157 -381,235 -547,235l-39 0c-52,0 -108,-25 -169,-78 -27,-9 -73,-68 -145,-175 -59,-116 -95,-219 -112,-303 -67,-362 -36,-732 92,-1116 95,-285 231,-565 412,-841 179,-263 326,-450 438,-556 287,-267 578,-401 869,-401 250,0 451,100 602,303 21,39 42,56 63,56 23,0 38,-11 45,-34l3 -9c5,-13 -7,-40 -36,-84 -164,-220 -384,-332 -664,-332zm723 1804c-105,0 -209,39 -309,114 -96,71 -174,139 -235,205 -139,159 -228,295 -266,409l-14 41c-21,64 -28,125 -20,184 37,128 98,191 186,191 94,0 213,-68 356,-205 141,-136 319,-338 535,-609l2 0c-1,2 -1,4 0,7 -26,73 -45,129 -59,171l-14 40c-16,50 -32,105 -47,164 -62,280 -30,418 92,418 101,0 240,-97 417,-295 188,-221 286,-344 294,-369 5,-15 -4,-29 -29,-36l-9 0c-11,0 -22,5 -32,14 -110,138 -218,264 -322,370 -136,137 -227,205 -275,205 -16,0 -25,-11 -34,-34 -18,-81 -1,-203 52,-359l19 -59c13,-39 63,-169 152,-385 4,-14 8,-25 10,-36 15,-73 -3,-110 -56,-110 -40,0 -95,34 -161,103l-6 0c-42,-93 -118,-139 -227,-139zm-682 728c24,-73 75,-164 155,-273 48,-64 108,-128 178,-194 116,-108 223,-163 325,-163 84,0 144,38 179,118l-227 257c-283,351 -464,526 -544,526 -7,-5 -13,-7 -16,-7 -75,-55 -90,-144 -50,-264zm2719 -665c120,-311 208,-532 261,-659 143,-325 265,-575 365,-751 60,-105 94,-161 110,-173l2 0c14,0 -10,98 -68,293 -93,285 -316,715 -668,1293l-3 0 1 -3zm-929 3c121,-312 207,-532 261,-660 209,-507 364,-851 463,-1026 60,-104 95,-162 110,-173l2 0c14,0 -9,98 -68,294 -136,409 -393,933 -766,1567l-2 0 0 -2zm647 400c-151,189 -281,340 -385,451 -244,255 -409,382 -495,382l-7 0c-14,0 -25,-6 -35,-18 -65,-91 -32,-332 97,-721 12,-35 28,-82 49,-139 67,-102 151,-228 243,-375 399,-658 670,-1197 808,-1613 38,-112 60,-203 68,-276 13,-106 -13,-159 -75,-159 -79,0 -174,93 -289,280 -95,157 -219,400 -369,732 -191,471 -353,901 -482,1290l-65 194c-29,87 -53,166 -72,241 -116,451 -89,676 85,676l13 0c71,0 176,-57 314,-169 166,-150 327,-318 477,-505l59 -73 -18 69c-116,450 -89,675 83,675l14 0c71,0 176,-56 314,-168 165,-150 326,-319 477,-505 117,-146 185,-234 202,-264 3,-29 -4,-43 -22,-43 -11,0 -27,7 -45,18 -159,198 -290,353 -399,469 -244,254 -410,382 -496,382l-7 0c-13,0 -25,-7 -35,-18 -66,-91 -33,-333 97,-722 12,-34 27,-81 49,-139 68,-101 150,-226 243,-375 359,-550 594,-996 710,-1338 37,-111 58,-202 67,-275 13,-107 -13,-159 -74,-159 -80,0 -175,93 -289,280 -96,156 -214,386 -353,694 -137,311 -271,664 -401,1053l-56 168zm1608 -434c-164,0 -342,87 -539,259 -110,112 -182,219 -216,319 -33,98 -42,196 -27,294 27,159 116,238 267,238 125,0 276,-57 447,-168 129,-96 227,-178 293,-246 131,-141 200,-223 207,-245l3 -7c-9,-21 -22,-30 -40,-30l-12 0c-18,11 -45,41 -86,89 -64,75 -157,161 -278,259 -191,143 -344,214 -462,214l-5 0c-73,0 -123,-27 -151,-82 -31,-88 -33,-180 1,-273 34,-96 56,-141 68,-141 104,-7 230,-43 379,-109 161,-80 253,-157 278,-232l3 -10c4,-11 5,-22 7,-34 -8,-65 -54,-97 -134,-97l-3 2zm-477 389c2,-9 33,-41 91,-98 141,-109 255,-163 344,-163l22 0c21,0 28,6 23,20 -12,18 -29,34 -45,47 -106,87 -250,151 -433,194l-2 0zm1275 -789c-28,0 -60,9 -101,29 -124,79 -205,173 -242,284 -38,112 -14,198 72,260 -54,88 -131,202 -232,341 3,25 18,36 47,36 7,0 12,-1 20,-6 79,-98 160,-207 246,-325l0 -3c106,37 167,59 185,69 -2,4 -4,10 -8,17 -96,178 -164,326 -203,441 -15,53 -26,94 -34,124 -30,155 -9,231 69,231l5 0c49,0 112,-31 189,-97 98,-96 177,-185 242,-264 147,-187 223,-286 229,-303l2 -7c-9,-20 -22,-29 -38,-29l-11 0 -12 2c-156,194 -288,343 -396,451 -69,70 -120,111 -150,120l-2 0c-16,0 -11,-47 17,-141l15 -43c23,-68 57,-150 104,-245 88,-153 135,-240 141,-257 11,-35 13,-66 6,-94 -16,-52 -98,-96 -244,-128 74,-120 121,-211 142,-275l1 -2 6 -12c9,-35 13,-61 13,-74 0,-66 -26,-100 -78,-100zm-195 304c4,-11 10,-23 17,-38 37,-62 70,-100 107,-121l11 0c7,0 6,18 -6,53l-1 4c-16,48 -51,118 -102,212 -1,2 -1,2 -4,2 -29,-27 -38,-64 -22,-112zm1143 -64l0 3c-35,0 -85,34 -154,105 -101,111 -197,229 -291,354 -93,117 -144,184 -150,203l-2 7c-6,18 -1,30 16,37 15,0 31,-7 46,-19 22,-23 99,-120 236,-291 122,-152 197,-235 222,-241 6,0 6,13 -3,43 -20,59 -68,195 -142,410 -80,240 -109,411 -87,509 21,84 63,125 119,125 62,0 152,-52 269,-159 104,-98 255,-252 458,-464 130,-137 203,-212 215,-223l2 0 0 2c-120,357 -238,694 -359,1015l-283 282c-448,448 -714,798 -798,1051l-2 4c-18,53 -26,105 -26,153 19,79 58,118 120,118l14 0c129,0 289,-102 476,-310 76,-83 156,-197 245,-340 53,-89 109,-196 168,-326 134,-314 223,-530 261,-646l19 -57 285 -302c227,-262 344,-410 354,-439l5 -14c-1,-20 -6,-32 -22,-32l-14 2c-16,0 -62,48 -137,144 -128,159 -264,309 -405,450 10,-29 24,-70 44,-122 161,-492 242,-749 242,-770 13,-84 -5,-125 -49,-125 -39,0 -87,27 -145,85 -130,147 -360,393 -687,737 -101,97 -171,152 -208,161 -76,-32 -58,-220 54,-564l96 -287c59,-179 60,-269 -2,-269zm319 1616l2 0 -1 4c-33,98 -98,262 -201,492 -17,53 -75,159 -174,325 -61,93 -122,173 -179,237 -132,143 -233,214 -301,214 -4,0 -9,0 -15,-3 -28,-20 -29,-68 -5,-140l2 -7c19,-57 48,-119 85,-180 116,-212 378,-525 787,-942z"/>
 </g>
</svg>
