<?xml version="1.0" encoding="UTF-8"?>
<!DOCTYPE svg PUBLIC "-//W3C//DTD SVG 1.1//EN" "http://www.w3.org/Graphics/SVG/1.1/DTD/svg11.dtd">
<!-- Creator: CorelDRAW X7 -->
<svg xmlns="http://www.w3.org/2000/svg" xml:space="preserve" width="10cm" height="6cm" version="1.1" style="shape-rendering:geometricPrecision; text-rendering:geometricPrecision; image-rendering:optimizeQuality; fill-rule:evenodd; clip-rule:evenodd"
viewBox="0 0 10000 6000"
 xmlns:xlink="http://www.w3.org/1999/xlink">
 <defs>
  <style type="text/css">
   <![CDATA[
    .fil0 {fill:#BE905C;fill-rule:nonzero}
   ]]>
  </style>
 </defs>
 <g id="Layer_x0020_1">
  <metadata id="CorelCorpID_0Corel-Layer"/>
  <path class="fil0" d="M2877 1045c-19,0 -33,21 -46,61 -3,19 -11,87 -26,207 -6,103 -41,362 -108,775 -112,635 -254,1236 -423,1798 -109,348 -203,608 -286,780 -40,87 -65,131 -75,131l-7 0c-22,-76 -36,-240 -37,-495 11,-504 18,-865 21,-1080 -2,-360 -12,-594 -28,-702 -6,-216 -50,-324 -132,-324 -11,0 -24,2 -44,8 -56,19 -126,104 -211,251 -64,110 -122,228 -178,352 -119,279 -268,723 -445,1334 -112,348 -180,521 -204,521l-2 0c-17,0 5,-190 65,-569 187,-1056 281,-1684 282,-1889 2,-124 -2,-206 -14,-247 -16,-52 -39,-79 -66,-79 -19,0 -28,6 -31,20 2,24 8,59 24,106 24,150 -16,516 -119,1100 -83,445 -147,795 -193,1054l-1 3c-54,305 -78,501 -69,585 10,74 35,110 71,110l6 0c19,0 42,-8 64,-28 84,-61 189,-295 316,-699 188,-624 347,-1069 473,-1337 90,-189 169,-327 232,-413l4 4c28,213 44,561 49,1044 -8,559 -8,929 1,1117 4,274 52,411 142,411 44,0 93,-36 143,-105 45,-74 106,-205 180,-397 221,-616 403,-1336 548,-2160 64,-361 115,-740 149,-1138 7,-75 -1,-110 -25,-110zm387 1924c-152,0 -305,81 -462,240 -86,104 -137,203 -154,296 -16,91 -10,181 18,272 48,148 142,221 282,221 115,0 247,-53 389,-156 106,-89 185,-164 237,-228 101,-131 152,-206 156,-227l1 -6c-11,-20 -25,-28 -41,-28l-11 0c-15,10 -36,38 -67,82 -48,70 -122,150 -220,241 -156,132 -288,197 -397,197l-5 0c-67,0 -117,-25 -151,-75 -42,-82 -57,-167 -39,-253 17,-89 31,-131 42,-131 95,-6 207,-40 336,-101 138,-74 211,-145 224,-215l1 -9c2,-10 2,-21 2,-31 -17,-61 -64,-90 -138,-90l-3 1zm-386 361c1,-8 25,-38 71,-91 115,-101 212,-151 294,-151l21 0c19,0 26,6 24,18 -9,17 -22,32 -35,44 -86,81 -210,140 -373,180l-2 0zm1525 -2245c-74,0 -148,86 -228,259 -65,146 -145,371 -236,679 -108,436 -195,835 -259,1195l-32 179c-14,81 -25,154 -32,224 -42,417 16,626 177,626l12 0c65,0 155,-53 266,-156 132,-139 257,-295 370,-468 87,-135 137,-217 148,-245 -1,-27 -10,-40 -26,-40 -11,0 -25,7 -39,17 -119,183 -218,327 -303,434 -189,236 -324,354 -403,354l-7 0c-13,0 -24,-6 -35,-16 -74,-84 -78,-308 -14,-669 5,-31 13,-75 25,-128 47,-95 106,-211 171,-348 274,-609 446,-1109 514,-1494 19,-104 26,-188 22,-256 -3,-98 -35,-147 -91,-147zm-548 1916c66,-289 114,-493 146,-611 119,-471 213,-789 280,-951 40,-97 65,-150 77,-160l2 0c13,0 5,91 -20,272 -68,379 -230,864 -483,1452l-2 0 0 -2zm1100 -25c-57,0 -125,29 -207,90 -166,133 -264,297 -298,492 -23,92 -18,185 14,276 44,120 120,179 226,179 120,0 271,-85 456,-255 177,-184 286,-312 324,-390 3,-15 -15,-26 -53,-32 -3,0 -7,2 -13,9 -8,10 -60,69 -156,177 -232,233 -405,349 -521,349l-2 0c-28,0 -53,-10 -74,-34 -71,-89 -89,-200 -59,-324 17,-93 53,-179 110,-261 100,-127 185,-190 255,-190 26,6 37,17 34,34 3,17 13,25 27,25 23,0 41,-6 53,-17l3 -16c-10,-74 -45,-112 -106,-112l-13 0zm763 36c-14,0 -48,12 -106,40 -151,103 -246,259 -283,467 -24,134 -17,249 22,348 51,108 123,163 223,163 137,0 258,-64 364,-188 12,-21 23,-32 29,-34 48,-10 96,-31 143,-67 79,-63 141,-129 188,-194 71,-103 108,-160 111,-175l0 -2c3,-15 -8,-25 -34,-34 -15,2 -26,4 -33,11 -30,50 -73,109 -127,179 -66,73 -126,129 -182,160 33,-82 57,-156 68,-217 10,-59 10,-129 -1,-209 -35,-137 -103,-204 -202,-204 -23,0 -46,2 -69,6 -104,32 -166,108 -188,228l0 2c-10,57 -11,120 -4,187 28,154 86,258 176,306l0 4c-67,74 -138,112 -216,112l-11 0c-30,0 -59,-12 -85,-40 -71,-90 -93,-215 -65,-373 11,-66 34,-133 67,-200 53,-95 112,-156 178,-188 36,-9 54,-21 57,-36l3 -17c0,-23 -8,-35 -23,-35zm48 303c3,-19 9,-42 18,-65 14,-36 39,-55 73,-55l5 0c7,0 15,2 29,4 58,44 75,139 50,282l-3 15 -4 21c-9,53 -28,112 -58,173 -9,-6 -26,-21 -47,-44 -63,-104 -84,-213 -63,-331zm965 -455c-15,2 -38,13 -64,27 -51,40 -125,140 -224,293 -98,160 -149,244 -151,255l-2 9c-3,19 6,32 28,34l5 0c8,0 18,-5 30,-15 17,-23 60,-91 130,-200 110,-169 179,-258 203,-268 13,0 12,42 -4,128 -24,127 -80,384 -166,774 -2,12 -3,28 -4,46 8,38 26,57 53,57l3 0c12,0 23,-2 31,-9 23,-4 84,-84 183,-242 119,-179 225,-327 318,-438 96,-120 171,-190 228,-211 52,0 69,61 47,183 -3,19 -37,173 -102,460l-4 46c9,41 29,61 58,61l9 0c31,0 62,-16 88,-52 155,-247 287,-433 391,-559 110,-135 196,-211 253,-227 13,20 14,67 1,141 -6,31 -12,63 -19,92 -73,249 -120,426 -139,533l-1 9c-11,61 -16,112 -13,156 7,78 32,118 72,118l9 0c73,0 181,-109 328,-329 142,-221 215,-337 217,-351 1,-28 -7,-43 -24,-43 -12,0 -26,7 -38,17 -137,213 -244,369 -321,468 -68,84 -112,127 -128,127l-2 0c-17,0 -18,-41 -4,-120l6 -34c12,-72 29,-143 50,-213 73,-234 116,-382 127,-443 2,-10 4,-38 10,-82 4,-116 -33,-173 -106,-173 -124,0 -325,188 -595,561 14,-65 22,-110 27,-129 12,-65 14,-128 11,-190 -20,-113 -76,-170 -169,-170l-18 0c-141,0 -367,252 -678,757l-2 0 0 -2c42,-201 74,-372 99,-511 11,-65 19,-118 23,-154 13,-124 -7,-187 -60,-187zm2287 109c-152,0 -305,81 -462,240 -86,104 -138,203 -154,296 -16,91 -10,181 17,272 48,148 143,221 282,221 116,0 248,-53 390,-156 106,-89 185,-164 236,-228 101,-131 153,-206 156,-227l2 -6c-11,-20 -25,-28 -42,-28l-10 0c-15,10 -37,38 -67,82 -49,70 -122,150 -220,241 -157,132 -288,197 -398,197l-4 0c-68,0 -118,-25 -151,-75 -43,-82 -57,-167 -40,-253 18,-89 32,-131 43,-131 95,-6 207,-40 336,-101 137,-74 211,-145 223,-215l2 -9c2,-10 1,-21 1,-31 -16,-61 -64,-90 -138,-90l-2 1zm-386 361c1,-8 25,-38 70,-91 115,-101 213,-151 295,-151l21 0c19,0 26,6 24,18 -9,17 -23,32 -35,44 -86,81 -210,140 -373,180l-2 0z"/>
 </g>
</svg>
